<svg width="41" height="33" viewBox="0 0 41 33" fill="none" xmlns="http://www.w3.org/2000/svg">
<path d="M24.8612 0.486439C21.9763 -0.0901892 18.9406 -0.172586 15.9868 0.338391C15.7585 0.37788 15.6134 0.558181 15.6627 0.741105C15.7119 0.924028 15.937 1.0403 16.1652 1.00081C18.9941 0.511466 21.9081 0.592152 24.6799 1.14882C31.3085 2.48007 36.8259 6.47356 38.9273 11.6901C39.74 13.7076 40.0853 15.8557 40.1544 18.107C40.1601 18.2941 40.3541 18.442 40.5875 18.4374C40.821 18.4328 41.0056 18.2774 40.9999 18.0904C40.9298 15.8081 40.5805 13.6047 39.7477 11.5207C37.5654 6.05936 31.7987 1.87309 24.8612 0.486439Z" fill="black"/>
<path d="M13.8408 1.51162C14.066 1.46186 14.1981 1.27527 14.136 1.09487C14.0739 0.914473 13.841 0.808575 13.6159 0.858342C10.5268 1.54122 6.18123 3.9008 3.49565 7.05302C3.4946 7.05424 3.49357 7.05548 3.49254 7.05672C1.13443 9.9043 -0.343777 13.4828 0.0689336 16.9552C0.0693266 16.9585 0.0697802 16.9618 0.0702942 16.9651C0.169204 17.5992 0.33525 18.232 0.501491 18.8657C0.851626 20.2002 1.20263 21.538 0.92904 22.897C0.89185 23.0818 1.04861 23.2557 1.27917 23.2855C1.50973 23.3153 1.72678 23.1897 1.76397 23.005C2.04996 21.5843 1.69486 20.1986 1.33968 18.8126C1.17542 18.1716 1.01115 17.5306 0.910263 16.886C0.5221 13.6048 1.92024 10.1818 4.1957 7.43327C6.77912 4.40204 10.9625 2.1479 13.8408 1.51162Z" fill="black"/>
<path d="M19.3899 2.26867C24.6989 2.00889 30.0069 3.74506 33.5716 7.07125C33.7238 7.21322 33.7035 7.42715 33.5263 7.54907C33.3491 7.67099 33.0822 7.65474 32.93 7.51277C29.5401 4.34969 24.4891 2.69746 19.4389 2.94522C19.4371 2.94531 19.4353 2.94539 19.4335 2.94546C13.0469 3.19309 7.06573 6.66481 4.86575 11.5295C4.78619 11.7055 4.54369 11.7964 4.32412 11.7327C4.10455 11.6689 3.99106 11.4746 4.07062 11.2987C6.38821 6.17385 12.6688 2.53018 19.3899 2.26867Z" fill="black"/>
<path d="M34.8599 8.55156C34.7297 8.39621 34.467 8.35485 34.2731 8.45918C34.0792 8.56351 34.0276 8.77403 34.1578 8.92939C36.134 11.2873 36.9511 13.8531 37.2741 16.8979C37.2939 17.0844 37.4986 17.2227 37.7313 17.2068C37.964 17.191 38.1366 17.027 38.1168 16.8405C37.7867 13.7291 36.944 11.0383 34.8599 8.55156Z" fill="black"/>
<path d="M37.8341 18.2791C38.0672 18.2674 38.2679 18.4094 38.2825 18.5962C38.4419 20.6394 38.4433 22.9511 38.1613 24.6594C38.1306 24.8449 37.9181 24.9754 37.6866 24.9509C37.4551 24.9263 37.2922 24.756 37.3228 24.5705C37.5947 22.924 37.5962 20.6613 37.4384 18.6384C37.4238 18.4517 37.601 18.2908 37.8341 18.2791Z" fill="black"/>
<path d="M4.22719 13.1707C4.282 12.9888 4.1424 12.8057 3.91538 12.7618C3.68836 12.7179 3.45989 12.8298 3.40508 13.0117C3.09471 14.0417 2.93359 15.0999 2.9272 16.159C2.92062 17.2507 3.17465 18.3163 3.42877 19.3823C3.63665 20.2543 3.8446 21.1266 3.91001 22.0137C3.99593 23.1789 3.69005 24.3459 3.16149 25.4565C3.07828 25.6314 3.18772 25.8272 3.40593 25.8939C3.62414 25.9606 3.8685 25.8729 3.95171 25.698C4.51041 24.524 4.84907 23.2594 4.75426 21.9737C4.6893 21.0927 4.48137 20.2255 4.27352 19.3586C4.0199 18.3008 3.7664 17.2435 3.77292 16.1623C3.77899 15.1559 3.93211 14.15 4.22719 13.1707Z" fill="black"/>
<path d="M15.323 5.64095C15.41 5.81461 15.3049 6.01192 15.0882 6.08166C10.7042 7.49237 7.41217 10.6758 6.74058 14.4298C6.46 15.9982 6.76314 17.5518 7.06619 19.1049C7.23686 19.9796 7.4075 20.8541 7.47384 21.7311C7.6177 23.6327 7.34739 25.7214 5.80295 27.6218C5.67551 27.7786 5.41355 27.823 5.21785 27.7209C5.02214 27.6187 4.96681 27.4088 5.09425 27.252C6.50139 25.5205 6.76774 23.5973 6.62966 21.7721C6.56235 20.8823 6.39277 19.9976 6.2233 19.1135C5.91925 17.5273 5.61554 15.9429 5.90342 14.3337C6.62049 10.3254 10.1266 6.94797 14.773 5.45279C14.9897 5.38305 15.2359 5.46729 15.323 5.64095Z" fill="black"/>
<path d="M30.168 7.57009C26.7095 4.97444 21.6968 4.06852 17.1412 4.8692C16.9131 4.90929 16.7687 5.08998 16.8188 5.27277C16.8688 5.45556 17.0943 5.57124 17.3224 5.53115C21.6363 4.77296 26.3562 5.63785 29.5898 8.0647C32.3153 10.1102 33.898 13.0866 34.3123 16.3339C34.336 16.5201 34.5436 16.6556 34.776 16.6365C35.0083 16.6175 35.1774 16.4512 35.1536 16.265C34.7234 12.8931 33.074 9.75106 30.168 7.57009Z" fill="black"/>
<path d="M35.0651 17.8787C35.2975 17.8596 35.5051 17.995 35.529 18.1811C35.9306 21.3144 35.7575 24.6986 35.1512 27.9725C35.117 28.1576 34.9019 28.2854 34.6709 28.2579C34.4399 28.2304 34.2804 28.0581 34.3147 27.873C34.9125 24.6446 35.0809 21.3179 34.6877 18.2504C34.6638 18.0642 34.8328 17.8978 35.0651 17.8787Z" fill="black"/>
<path d="M20.3225 6.88633C13.8426 6.88633 8.57768 11.0288 8.57768 16.1504C8.57768 16.6974 8.63827 17.2335 8.75377 17.7547C8.79459 17.939 9.0141 18.0618 9.24404 18.0291C9.47399 17.9964 9.6273 17.8205 9.58647 17.6362C9.47954 17.1537 9.42341 16.6572 9.42341 16.1504C9.42341 11.4135 14.2966 7.56402 20.3225 7.56402C23.0456 7.56402 25.5336 8.35048 27.4433 9.65C27.6213 9.77114 27.8882 9.75371 28.0393 9.61106C28.1905 9.46842 28.1688 9.25459 27.9907 9.13345C25.9329 7.73308 23.2522 6.88633 20.3225 6.88633Z" fill="black"/>
<path d="M28.9382 10.3968C29.1067 10.2673 29.3744 10.2718 29.5361 10.4069C31.4023 11.9662 31.9996 14.4171 32.3949 16.4739C32.8401 18.7907 32.9081 21.0509 32.9081 22.0989C32.9081 22.286 32.7188 22.4377 32.4852 22.4377C32.2517 22.4377 32.0624 22.286 32.0624 22.0989C32.0624 21.0679 31.995 18.8459 31.559 16.577C31.1921 14.6676 30.6631 12.3277 28.9257 10.8759C28.764 10.7408 28.7696 10.5263 28.9382 10.3968Z" fill="black"/>
<path d="M32.8007 24.0394C32.8193 23.8529 32.6456 23.6896 32.4128 23.6747C32.18 23.6599 31.9762 23.799 31.9577 23.9856C31.75 26.0728 31.4786 28.1577 30.928 30.0836C30.8759 30.266 31.0181 30.4478 31.2458 30.4895C31.4734 30.5313 31.7003 30.4173 31.7524 30.2349C32.3175 28.2582 32.5925 26.1322 32.8007 24.0394Z" fill="black"/>
<path d="M9.43442 19.0018C9.66356 18.9657 9.88589 19.0852 9.93102 19.2688C10.8251 22.907 10.2074 26.212 7.83974 29.1071C7.71173 29.2636 7.44961 29.3074 7.25428 29.2048C7.05895 29.1022 7.00437 28.8922 7.13238 28.7357C9.36014 26.0117 9.95969 22.893 9.10123 19.3997C9.0561 19.2161 9.20528 19.038 9.43442 19.0018Z" fill="black"/>
<path d="M20.3225 9.09101C16.1162 9.09101 11.9898 11.7001 11.5686 14.9791C11.3842 16.4146 11.6432 17.8287 11.9024 19.2433C12.1286 20.4785 12.355 21.7142 12.2863 22.965C12.129 25.8276 11.0808 28.1905 9.27974 30.1368C9.14064 30.2871 9.17994 30.4993 9.36754 30.6108C9.55513 30.7222 9.81997 30.6907 9.95908 30.5404C11.8693 28.4762 12.9671 25.9803 13.1312 22.9948C13.1996 21.7496 12.9725 20.5179 12.7456 19.287C12.4862 17.8794 12.2269 16.4728 12.4099 15.0485C12.7799 12.1679 16.48 9.76869 20.3225 9.76869C22.1147 9.76869 26.7516 10.5463 28.2266 14.3965C29.1509 16.8093 29.403 20.0746 29.1791 23.2469C28.9553 26.4188 28.2589 29.4525 27.3225 31.3979C27.2384 31.5725 27.3469 31.7686 27.5648 31.8359C27.7827 31.9033 28.0275 31.8163 28.1115 31.6417C29.0912 29.6065 29.7969 26.4959 30.0235 23.2852C30.2501 20.0748 30.001 16.7191 29.0351 14.1976C27.3978 9.92375 22.2653 9.09101 20.3225 9.09101Z" fill="black"/>
<path d="M13.815 29.1076C14.0106 29.2099 14.0657 29.4198 13.9381 29.5766C13.6759 29.8987 13.4453 30.2358 13.2146 30.5728C12.9839 30.9099 12.7532 31.2471 12.4909 31.5693C12.3633 31.726 12.1013 31.7702 11.9057 31.668C11.7101 31.5657 11.6549 31.3558 11.7825 31.1991C12.0447 30.8769 12.2754 30.5398 12.5061 30.2028C12.7368 29.8657 12.9675 29.5285 13.2298 29.2063C13.3574 29.0496 13.6194 29.0054 13.815 29.1076Z" fill="black"/>
<path d="M17.4358 12.6083C17.6299 12.5043 17.682 12.2939 17.5522 12.1383C17.4224 11.9828 17.1597 11.941 16.9656 12.045C15.2911 12.9425 14.2638 14.1766 14.2638 15.9845C14.2638 17.061 14.5018 17.9409 14.7459 18.8434C15.1112 20.194 15.359 21.5416 15.3145 22.9288C15.2604 24.6133 14.8491 26.1526 14.0584 27.6189C13.9658 27.7907 14.0645 27.9901 14.2789 28.0644C14.4933 28.1386 14.7422 28.0595 14.8348 27.8877C15.6708 26.3373 16.1032 24.7121 16.1599 22.9462C16.2062 21.5048 15.9515 20.1038 15.5727 18.7001C15.328 17.7937 15.1096 16.9844 15.1096 15.9845C15.1096 14.4355 15.96 13.3993 17.4358 12.6083Z" fill="black"/>
<path d="M19.0863 11.4178C20.841 11.1312 22.7293 11.4854 24.1191 12.3868C26.6017 13.9969 26.9319 16.9333 27.1994 19.3127L27.2131 19.4339C27.5588 22.5011 27.1631 25.4803 26.3658 28.4721C26.3171 28.6551 26.0924 28.7718 25.864 28.7327C25.6356 28.6936 25.49 28.5136 25.5388 28.3306C26.324 25.3836 26.7068 22.4753 26.3708 19.4949C26.3597 19.3962 26.3486 19.2961 26.3374 19.1948L26.3372 19.1934C26.0996 17.0431 25.8019 14.35 23.5871 12.9135C22.3988 12.1429 20.7691 11.8345 19.2552 12.0818C19.0264 12.1192 18.803 12.0009 18.7564 11.8175C18.7097 11.6341 18.8574 11.4552 19.0863 11.4178Z" fill="black"/>
<path d="M25.7682 30.1581C25.8258 29.9768 25.689 29.7924 25.4627 29.7462C25.2364 29.7 25.0062 29.8096 24.9486 29.9909C24.6929 30.7956 24.299 31.5218 23.7996 32.1905C23.6796 32.3511 23.7449 32.5592 23.9453 32.6553C24.1456 32.7514 24.4053 32.6991 24.5253 32.5385C25.0635 31.8179 25.4908 31.0311 25.7682 30.1581Z" fill="black"/>
<path d="M23.7003 25.2409C23.9323 25.2629 24.098 25.4314 24.0706 25.6173C23.6712 28.3216 22.7696 30.7334 21.3229 32.8253C21.2097 32.989 20.9523 33.0482 20.748 32.9575C20.5438 32.8668 20.4699 32.6605 20.5831 32.4969C21.9677 30.4949 22.8419 28.1706 23.2307 25.5376C23.2582 25.3518 23.4684 25.219 23.7003 25.2409Z" fill="black"/>
<path d="M23.6132 15.8068C23.32 14.5516 21.9756 13.5914 20.3434 13.5914C18.1333 13.5914 16.5826 15.3766 17.1291 17.0374C18.0537 19.9691 18.2055 22.7946 17.5795 25.5159L17.5791 25.5179C17.0359 27.9613 15.9928 30.1593 14.57 32.0219C14.4481 32.1815 14.5107 32.3901 14.7099 32.4878C14.9091 32.5855 15.1694 32.5353 15.2913 32.3757C16.7724 30.4369 17.8509 28.1587 18.4115 25.6378C19.0614 22.8114 18.9003 19.8868 17.9484 16.8696L17.9473 16.866C17.5374 15.6237 18.6799 14.2691 20.3434 14.2691C21.5439 14.2691 22.5576 14.9768 22.7814 15.9291C23.3969 18.79 23.7175 21.4429 23.4892 23.727C23.4706 23.9135 23.6442 24.0769 23.877 24.0918C24.1098 24.1067 24.3136 23.9676 24.3322 23.7811C24.5688 21.4136 24.2349 18.6953 23.6143 15.8115C23.6139 15.8099 23.6136 15.8084 23.6132 15.8068Z" fill="black"/>
<path d="M19.0816 30.4823C19.2894 30.5678 19.3712 30.7721 19.2645 30.9385L18.144 32.6858C18.0373 32.8522 17.7823 32.9178 17.5746 32.8323C17.3669 32.7467 17.285 32.5425 17.3918 32.376L18.5123 30.6288C18.619 30.4623 18.8739 30.3967 19.0816 30.4823Z" fill="black"/>
<path d="M20.6579 16.1335C20.6045 15.9513 20.3769 15.8383 20.1496 15.8811C19.9222 15.9239 19.7812 16.1063 19.8346 16.2885C21.2606 21.1526 21.0648 25.4237 19.3278 29.0622C19.2444 29.2369 19.3536 29.4328 19.5717 29.4997C19.7898 29.5666 20.0343 29.4791 20.1177 29.3043C21.9288 25.5106 22.1129 21.0963 20.6579 16.1335Z" fill="black"/>
</svg>
